<mxfile host="app.diagrams.net" modified="2024-02-01T08:11:11.988Z" agent="Mozilla/5.0 (X11; Linux x86_64) AppleWebKit/537.36 (KHTML, like Gecko) Chrome/121.0.0.0 Safari/537.36" etag="L3GtQP4D8Ue-lKFNprPS" version="22.1.21" type="github">
  <diagram name="Page-1" id="XdKM4T_86rwSwpMaFFB6">
    <mxGraphModel dx="1235" dy="1184" grid="1" gridSize="10" guides="1" tooltips="1" connect="1" arrows="1" fold="1" page="1" pageScale="1" pageWidth="850" pageHeight="1100" math="0" shadow="0">
      <root>
        <mxCell id="0" />
        <mxCell id="1" parent="0" />
        <mxCell id="a3yt3WAcksWLIJEv76cY-4" value="&lt;font style=&quot;font-size: 24px;&quot;&gt;GPU Driver&lt;/font&gt;" style="rounded=0;whiteSpace=wrap;html=1;" parent="1" vertex="1">
          <mxGeometry x="160" y="380" width="490" height="290" as="geometry" />
        </mxCell>
        <mxCell id="a3yt3WAcksWLIJEv76cY-2" value="" style="endArrow=none;dashed=1;html=1;rounded=0;" parent="1" edge="1">
          <mxGeometry width="50" height="50" relative="1" as="geometry">
            <mxPoint x="85" y="360" as="sourcePoint" />
            <mxPoint x="765" y="360" as="targetPoint" />
          </mxGeometry>
        </mxCell>
        <mxCell id="a3yt3WAcksWLIJEv76cY-3" value="" style="endArrow=none;dashed=1;html=1;rounded=0;" parent="1" edge="1">
          <mxGeometry width="50" height="50" relative="1" as="geometry">
            <mxPoint x="80" y="720" as="sourcePoint" />
            <mxPoint x="760" y="720" as="targetPoint" />
          </mxGeometry>
        </mxCell>
        <mxCell id="a3yt3WAcksWLIJEv76cY-7" value="GPU device" style="rounded=0;whiteSpace=wrap;html=1;" parent="1" vertex="1">
          <mxGeometry x="80" y="740" width="340" height="320" as="geometry" />
        </mxCell>
        <mxCell id="a3yt3WAcksWLIJEv76cY-8" value="Host system" style="rounded=0;whiteSpace=wrap;html=1;" parent="1" vertex="1">
          <mxGeometry x="640" y="740" width="120" height="320" as="geometry" />
        </mxCell>
        <mxCell id="a3yt3WAcksWLIJEv76cY-9" value="IOMMU" style="rounded=0;whiteSpace=wrap;html=1;" parent="1" vertex="1">
          <mxGeometry x="470" y="740" width="120" height="320" as="geometry" />
        </mxCell>
        <mxCell id="a3yt3WAcksWLIJEv76cY-10" value="Device memory" style="rounded=1;whiteSpace=wrap;html=1;" parent="1" vertex="1">
          <mxGeometry x="310" y="760" width="100" height="60" as="geometry" />
        </mxCell>
        <mxCell id="a3yt3WAcksWLIJEv76cY-11" value="Processing Unit" style="rounded=1;whiteSpace=wrap;html=1;" parent="1" vertex="1">
          <mxGeometry x="310" y="830" width="100" height="60" as="geometry" />
        </mxCell>
        <mxCell id="a3yt3WAcksWLIJEv76cY-12" value="Applications" style="rounded=0;whiteSpace=wrap;html=1;" parent="1" vertex="1">
          <mxGeometry x="250" y="70" width="280" height="280" as="geometry" />
        </mxCell>
        <mxCell id="a3yt3WAcksWLIJEv76cY-13" value="Shader program" style="rounded=1;whiteSpace=wrap;html=1;" parent="1" vertex="1">
          <mxGeometry x="265" y="240" width="120" height="60" as="geometry" />
        </mxCell>
        <mxCell id="a3yt3WAcksWLIJEv76cY-14" value="WebGL frontend" style="rounded=1;whiteSpace=wrap;html=1;" parent="1" vertex="1">
          <mxGeometry x="400" y="240" width="120" height="60" as="geometry" />
        </mxCell>
        <mxCell id="a3yt3WAcksWLIJEv76cY-15" value="kernel" style="text;html=1;align=center;verticalAlign=middle;resizable=0;points=[];autosize=1;strokeColor=none;fillColor=none;" parent="1" vertex="1">
          <mxGeometry x="770" y="360" width="60" height="30" as="geometry" />
        </mxCell>
        <mxCell id="a3yt3WAcksWLIJEv76cY-16" value="user" style="text;html=1;align=center;verticalAlign=middle;resizable=0;points=[];autosize=1;strokeColor=none;fillColor=none;" parent="1" vertex="1">
          <mxGeometry x="770" y="330" width="50" height="30" as="geometry" />
        </mxCell>
        <mxCell id="a3yt3WAcksWLIJEv76cY-17" value="kernel" style="text;html=1;align=center;verticalAlign=middle;resizable=0;points=[];autosize=1;strokeColor=none;fillColor=none;" parent="1" vertex="1">
          <mxGeometry x="770" y="690" width="60" height="30" as="geometry" />
        </mxCell>
        <mxCell id="a3yt3WAcksWLIJEv76cY-18" value="hardware" style="text;html=1;align=center;verticalAlign=middle;resizable=0;points=[];autosize=1;strokeColor=none;fillColor=none;" parent="1" vertex="1">
          <mxGeometry x="770" y="720" width="70" height="30" as="geometry" />
        </mxCell>
        <mxCell id="a3yt3WAcksWLIJEv76cY-19" value="codec?" style="text;html=1;align=center;verticalAlign=middle;resizable=0;points=[];autosize=1;strokeColor=none;fillColor=none;" parent="1" vertex="1">
          <mxGeometry x="880" y="10" width="60" height="30" as="geometry" />
        </mxCell>
        <mxCell id="a3yt3WAcksWLIJEv76cY-21" value="Global memory" style="rounded=1;whiteSpace=wrap;html=1;" parent="1" vertex="1">
          <mxGeometry x="110" y="980" width="280" height="60" as="geometry" />
        </mxCell>
        <mxCell id="a3yt3WAcksWLIJEv76cY-22" value="Device memory" style="rounded=1;whiteSpace=wrap;html=1;" parent="1" vertex="1">
          <mxGeometry x="200" y="760" width="100" height="60" as="geometry" />
        </mxCell>
        <mxCell id="a3yt3WAcksWLIJEv76cY-23" value="Processing Unit" style="rounded=1;whiteSpace=wrap;html=1;" parent="1" vertex="1">
          <mxGeometry x="200" y="830" width="100" height="60" as="geometry" />
        </mxCell>
        <mxCell id="a3yt3WAcksWLIJEv76cY-24" value="Device memory" style="rounded=1;whiteSpace=wrap;html=1;" parent="1" vertex="1">
          <mxGeometry x="90" y="760" width="100" height="60" as="geometry" />
        </mxCell>
        <mxCell id="a3yt3WAcksWLIJEv76cY-25" value="Processing Unit" style="rounded=1;whiteSpace=wrap;html=1;" parent="1" vertex="1">
          <mxGeometry x="90" y="830" width="100" height="60" as="geometry" />
        </mxCell>
        <mxCell id="l68nyCXrRWUfrSOG9O_V-1" value="WebGL backend" style="rounded=1;whiteSpace=wrap;html=1;" vertex="1" parent="1">
          <mxGeometry x="260" y="560" width="120" height="60" as="geometry" />
        </mxCell>
      </root>
    </mxGraphModel>
  </diagram>
</mxfile>
